<svg width="18" height="18" viewBox="0 0 18 18" fill="none" xmlns="http://www.w3.org/2000/svg">
<path d="M9 17C13.4183 17 17 13.4183 17 9C17 4.58172 13.4183 1 9 1C4.58172 1 1 4.58172 1 9C1 13.4183 4.58172 17 9 17ZM9 17L9.00005 13.8889C9.00005 13.6434 8.80106 13.4444 8.5556 13.4444H7.66675C7.4213 13.4444 7.22232 13.2455 7.22231 13L7.22222 11.2222M14.3334 14.9629V13C14.3334 12.7545 14.1344 12.5556 13.889 12.5556H12.1112C11.8657 12.5556 11.6667 12.3566 11.6667 12.1111V10.3333C11.6667 10.0879 11.4678 9.88889 11.2223 9.88889H7.22233M10.7778 1.19825V3.22222C10.7778 3.46768 10.5788 3.66667 10.3334 3.66667H7.66678C7.42132 3.66667 7.22233 3.86565 7.22233 4.11111V5.89515C7.22233 6.14061 7.02335 6.33959 6.77789 6.33959H5.889C5.64354 6.33959 5.44455 6.53858 5.44455 6.78404V9.44455M7.22222 11.2222L7.22233 9.88889M7.22222 11.2222L5.88889 9.88889M1.70701 5.70701L5.44455 9.44455M5.44455 9.44455L5.88889 9.88889M7.22233 9.88889H5.88889" stroke="white" stroke-width="2"/>
</svg>
